# xmcd
#
# Track frame offsets:
#	150
#	17646
#	38458
#	57591
#	75997
#	100303
#	132820
#	151467
#	168166
#	186653
#	201878
#	220034
#	243218
#	264323
#
# Disc length: 3703 seconds
#
# Revision: 1
# Processed by: cddbd v1.5.2PL0 Copyright (c) Steve Scherf et al.
# Submitted via: audiograbber 1.83.01
#
DISCID=b20e750e
DTITLE=Last Train Home - Last Good Kiss
DYEAR=2007
DGENRE=Rock
TTITLE0=Last Good Kiss
TTITLE1=Flood
TTITLE2=Anywhere But Here
TTITLE3=Can't Come Undone
TTITLE4=Go Now
TTITLE5=May
TTITLE6=You
TTITLE7=I'm Coming Home
TTITLE8=Kissing Booth
TTITLE9=Marking Time
TTITLE10=The Colour Blue
TTITLE11=Lover's Farewell
TTITLE12=This Wheel's On Fire
TTITLE13=Last Good Kiss (radio Edit)
EXTD=
EXTT0=
EXTT1=
EXTT2=
EXTT3=
EXTT4=
EXTT5=
EXTT6=
EXTT7=
EXTT8=
EXTT9=
EXTT10=
EXTT11=
EXTT12=
EXTT13=
PLAYORDER=
